<svg width="280" height="250" viewBox="0 0 280 250" fill="none" xmlns="http://www.w3.org/2000/svg">
<rect width="280" height="250" rx="5" fill="#FAFAFA"/>
<path d="M79.22 152.24C79.22 152.947 79.0533 153.613 78.72 154.24C78.3867 154.867 77.8533 155.38 77.12 155.78C76.3867 156.167 75.4467 156.36 74.3 156.36H71.78V162H69.5V148.1H74.3C75.3667 148.1 76.2667 148.287 77 148.66C77.7467 149.02 78.3 149.513 78.66 150.14C79.0333 150.767 79.22 151.467 79.22 152.24ZM74.3 154.5C75.1667 154.5 75.8133 154.307 76.24 153.92C76.6667 153.52 76.88 152.96 76.88 152.24C76.88 150.72 76.02 149.96 74.3 149.96H71.78V154.5H74.3ZM80.6345 156.44C80.6345 155.333 80.8612 154.353 81.3145 153.5C81.7812 152.647 82.4079 151.987 83.1945 151.52C83.9945 151.04 84.8745 150.8 85.8345 150.8C86.7012 150.8 87.4545 150.973 88.0945 151.32C88.7479 151.653 89.2679 152.073 89.6545 152.58V150.98H91.9545V162H89.6545V160.36C89.2679 160.88 88.7412 161.313 88.0745 161.66C87.4079 162.007 86.6479 162.18 85.7945 162.18C84.8479 162.18 83.9812 161.94 83.1945 161.46C82.4079 160.967 81.7812 160.287 81.3145 159.42C80.8612 158.54 80.6345 157.547 80.6345 156.44ZM89.6545 156.48C89.6545 155.72 89.4945 155.06 89.1745 154.5C88.8679 153.94 88.4612 153.513 87.9545 153.22C87.4479 152.927 86.9012 152.78 86.3145 152.78C85.7279 152.78 85.1812 152.927 84.6745 153.22C84.1679 153.5 83.7545 153.92 83.4345 154.48C83.1279 155.027 82.9745 155.68 82.9745 156.44C82.9745 157.2 83.1279 157.867 83.4345 158.44C83.7545 159.013 84.1679 159.453 84.6745 159.76C85.1945 160.053 85.7412 160.2 86.3145 160.2C86.9012 160.2 87.4479 160.053 87.9545 159.76C88.4612 159.467 88.8679 159.04 89.1745 158.48C89.4945 157.907 89.6545 157.24 89.6545 156.48ZM97.2292 152.58C97.5626 152.02 98.0026 151.587 98.5492 151.28C99.1092 150.96 99.7692 150.8 100.529 150.8V153.16H99.9492C99.0559 153.16 98.3759 153.387 97.9092 153.84C97.4559 154.293 97.2292 155.08 97.2292 156.2V162H94.9492V150.98H97.2292V152.58ZM106.985 156.5L112.065 162H108.985L104.905 157.26V162H102.625V147.2H104.905V155.8L108.905 150.98H112.065L106.985 156.5ZM114.859 149.52C114.446 149.52 114.099 149.38 113.819 149.1C113.539 148.82 113.399 148.473 113.399 148.06C113.399 147.647 113.539 147.3 113.819 147.02C114.099 146.74 114.446 146.6 114.859 146.6C115.259 146.6 115.599 146.74 115.879 147.02C116.159 147.3 116.299 147.647 116.299 148.06C116.299 148.473 116.159 148.82 115.879 149.1C115.599 149.38 115.259 149.52 114.859 149.52ZM115.979 150.98V162H113.699V150.98H115.979ZM124.533 150.8C125.399 150.8 126.173 150.98 126.853 151.34C127.546 151.7 128.086 152.233 128.473 152.94C128.859 153.647 129.053 154.5 129.053 155.5V162H126.793V155.84C126.793 154.853 126.546 154.1 126.053 153.58C125.559 153.047 124.886 152.78 124.033 152.78C123.179 152.78 122.499 153.047 121.993 153.58C121.499 154.1 121.253 154.853 121.253 155.84V162H118.973V150.98H121.253V152.24C121.626 151.787 122.099 151.433 122.673 151.18C123.259 150.927 123.879 150.8 124.533 150.8ZM136.401 150.8C137.254 150.8 138.008 150.973 138.661 151.32C139.328 151.653 139.848 152.073 140.221 152.58V150.98H142.521V162.18C142.521 163.193 142.308 164.093 141.881 164.88C141.454 165.68 140.834 166.307 140.021 166.76C139.221 167.213 138.261 167.44 137.141 167.44C135.648 167.44 134.408 167.087 133.421 166.38C132.434 165.687 131.874 164.74 131.741 163.54H134.001C134.174 164.113 134.541 164.573 135.101 164.92C135.674 165.28 136.354 165.46 137.141 165.46C138.061 165.46 138.801 165.18 139.361 164.62C139.934 164.06 140.221 163.247 140.221 162.18V160.34C139.834 160.86 139.308 161.3 138.641 161.66C137.988 162.007 137.241 162.18 136.401 162.18C135.441 162.18 134.561 161.94 133.761 161.46C132.974 160.967 132.348 160.287 131.881 159.42C131.428 158.54 131.201 157.547 131.201 156.44C131.201 155.333 131.428 154.353 131.881 153.5C132.348 152.647 132.974 151.987 133.761 151.52C134.561 151.04 135.441 150.8 136.401 150.8ZM140.221 156.48C140.221 155.72 140.061 155.06 139.741 154.5C139.434 153.94 139.028 153.513 138.521 153.22C138.014 152.927 137.468 152.78 136.881 152.78C136.294 152.78 135.748 152.927 135.241 153.22C134.734 153.5 134.321 153.92 134.001 154.48C133.694 155.027 133.541 155.68 133.541 156.44C133.541 157.2 133.694 157.867 134.001 158.44C134.321 159.013 134.734 159.453 135.241 159.76C135.761 160.053 136.308 160.2 136.881 160.2C137.468 160.2 138.014 160.053 138.521 159.76C139.028 159.467 139.434 159.04 139.741 158.48C140.061 157.907 140.221 157.24 140.221 156.48ZM154.711 162.18C153.844 162.18 153.064 162.027 152.371 161.72C151.691 161.4 151.151 160.973 150.751 160.44C150.351 159.893 150.138 159.287 150.111 158.62H152.471C152.511 159.087 152.731 159.48 153.131 159.8C153.544 160.107 154.058 160.26 154.671 160.26C155.311 160.26 155.804 160.14 156.151 159.9C156.511 159.647 156.691 159.327 156.691 158.94C156.691 158.527 156.491 158.22 156.091 158.02C155.704 157.82 155.084 157.6 154.231 157.36C153.404 157.133 152.731 156.913 152.211 156.7C151.691 156.487 151.238 156.16 150.851 155.72C150.478 155.28 150.291 154.7 150.291 153.98C150.291 153.393 150.464 152.86 150.811 152.38C151.158 151.887 151.651 151.5 152.291 151.22C152.944 150.94 153.691 150.8 154.531 150.8C155.784 150.8 156.791 151.12 157.551 151.76C158.324 152.387 158.738 153.247 158.791 154.34H156.511C156.471 153.847 156.271 153.453 155.911 153.16C155.551 152.867 155.064 152.72 154.451 152.72C153.851 152.72 153.391 152.833 153.071 153.06C152.751 153.287 152.591 153.587 152.591 153.96C152.591 154.253 152.698 154.5 152.911 154.7C153.124 154.9 153.384 155.06 153.691 155.18C153.998 155.287 154.451 155.427 155.051 155.6C155.851 155.813 156.504 156.033 157.011 156.26C157.531 156.473 157.978 156.793 158.351 157.22C158.724 157.647 158.918 158.213 158.931 158.92C158.931 159.547 158.758 160.107 158.411 160.6C158.064 161.093 157.571 161.48 156.931 161.76C156.304 162.04 155.564 162.18 154.711 162.18ZM163.675 152.6C164.061 152.093 164.588 151.667 165.255 151.32C165.921 150.973 166.675 150.8 167.515 150.8C168.475 150.8 169.348 151.04 170.135 151.52C170.935 151.987 171.561 152.647 172.015 153.5C172.468 154.353 172.695 155.333 172.695 156.44C172.695 157.547 172.468 158.54 172.015 159.42C171.561 160.287 170.935 160.967 170.135 161.46C169.348 161.94 168.475 162.18 167.515 162.18C166.675 162.18 165.928 162.013 165.275 161.68C164.621 161.333 164.088 160.907 163.675 160.4V167.24H161.395V150.98H163.675V152.6ZM170.375 156.44C170.375 155.68 170.215 155.027 169.895 154.48C169.588 153.92 169.175 153.5 168.655 153.22C168.148 152.927 167.601 152.78 167.015 152.78C166.441 152.78 165.895 152.927 165.375 153.22C164.868 153.513 164.455 153.94 164.135 154.5C163.828 155.06 163.675 155.72 163.675 156.48C163.675 157.24 163.828 157.907 164.135 158.48C164.455 159.04 164.868 159.467 165.375 159.76C165.895 160.053 166.441 160.2 167.015 160.2C167.601 160.2 168.148 160.053 168.655 159.76C169.175 159.453 169.588 159.013 169.895 158.44C170.215 157.867 170.375 157.2 170.375 156.44ZM174.189 156.44C174.189 155.333 174.416 154.353 174.869 153.5C175.336 152.647 175.963 151.987 176.749 151.52C177.549 151.04 178.429 150.8 179.389 150.8C180.256 150.8 181.009 150.973 181.649 151.32C182.303 151.653 182.823 152.073 183.209 152.58V150.98H185.509V162H183.209V160.36C182.823 160.88 182.296 161.313 181.629 161.66C180.963 162.007 180.203 162.18 179.349 162.18C178.403 162.18 177.536 161.94 176.749 161.46C175.963 160.967 175.336 160.287 174.869 159.42C174.416 158.54 174.189 157.547 174.189 156.44ZM183.209 156.48C183.209 155.72 183.049 155.06 182.729 154.5C182.423 153.94 182.016 153.513 181.509 153.22C181.003 152.927 180.456 152.78 179.869 152.78C179.283 152.78 178.736 152.927 178.229 153.22C177.723 153.5 177.309 153.92 176.989 154.48C176.683 155.027 176.529 155.68 176.529 156.44C176.529 157.2 176.683 157.867 176.989 158.44C177.309 159.013 177.723 159.453 178.229 159.76C178.749 160.053 179.296 160.2 179.869 160.2C180.456 160.2 181.003 160.053 181.509 159.76C182.016 159.467 182.423 159.04 182.729 158.48C183.049 157.907 183.209 157.24 183.209 156.48ZM187.744 156.48C187.744 155.347 187.971 154.353 188.424 153.5C188.891 152.633 189.531 151.967 190.344 151.5C191.157 151.033 192.091 150.8 193.144 150.8C194.477 150.8 195.577 151.12 196.444 151.76C197.324 152.387 197.917 153.287 198.224 154.46H195.764C195.564 153.913 195.244 153.487 194.804 153.18C194.364 152.873 193.811 152.72 193.144 152.72C192.211 152.72 191.464 153.053 190.904 153.72C190.357 154.373 190.084 155.293 190.084 156.48C190.084 157.667 190.357 158.593 190.904 159.26C191.464 159.927 192.211 160.26 193.144 160.26C194.464 160.26 195.337 159.68 195.764 158.52H198.224C197.904 159.64 197.304 160.533 196.424 161.2C195.544 161.853 194.451 162.18 193.144 162.18C192.091 162.18 191.157 161.947 190.344 161.48C189.531 161 188.891 160.333 188.424 159.48C187.971 158.613 187.744 157.613 187.744 156.48ZM210.596 156.22C210.596 156.633 210.569 157.007 210.516 157.34H202.096C202.163 158.22 202.489 158.927 203.076 159.46C203.663 159.993 204.383 160.26 205.236 160.26C206.463 160.26 207.329 159.747 207.836 158.72H210.296C209.963 159.733 209.356 160.567 208.476 161.22C207.609 161.86 206.529 162.18 205.236 162.18C204.183 162.18 203.236 161.947 202.396 161.48C201.569 161 200.916 160.333 200.436 159.48C199.969 158.613 199.736 157.613 199.736 156.48C199.736 155.347 199.963 154.353 200.416 153.5C200.883 152.633 201.529 151.967 202.356 151.5C203.196 151.033 204.156 150.8 205.236 150.8C206.276 150.8 207.203 151.027 208.016 151.48C208.829 151.933 209.463 152.573 209.916 153.4C210.369 154.213 210.596 155.153 210.596 156.22ZM208.216 155.5C208.203 154.66 207.903 153.987 207.316 153.48C206.729 152.973 206.003 152.72 205.136 152.72C204.349 152.72 203.676 152.973 203.116 153.48C202.556 153.973 202.223 154.647 202.116 155.5H208.216Z" fill="#7C6A46"/>
<path d="M148.524 113.605C146.564 115.019 144.175 115.707 141.763 115.554H136.155V125H130.546V98.4317H142.118C144.421 98.3096 146.689 99.0341 148.494 100.469C149.337 101.284 149.988 102.277 150.401 103.374C150.815 104.471 150.98 105.647 150.885 106.815C151.037 108.052 150.903 109.308 150.494 110.485C150.084 111.662 149.41 112.729 148.524 113.605ZM144.096 104.041C143.242 103.415 142.2 103.102 141.144 103.155H136.155V110.978H141.144C142.21 111.034 143.26 110.698 144.096 110.033C144.469 109.643 144.757 109.178 144.94 108.67C145.123 108.161 145.197 107.62 145.158 107.081C145.227 106.527 145.167 105.964 144.983 105.437C144.798 104.909 144.495 104.431 144.096 104.041ZM160.066 96.0996C160.228 95.7469 160.244 95.3448 160.111 94.9801C159.979 94.6155 159.708 94.3178 159.358 94.1513L139.668 85L119.859 94.1513C119.683 94.2327 119.524 94.3481 119.393 94.4908C119.261 94.6335 119.158 94.8008 119.091 94.9831C119.024 95.1653 118.993 95.3591 119.001 95.5532C119.009 95.7473 119.055 95.938 119.136 96.1144C119.218 96.2908 119.333 96.4494 119.476 96.5812C119.618 96.713 119.786 96.8154 119.968 96.8826C120.15 96.9497 120.344 96.9803 120.538 96.9726C120.732 96.9649 120.923 96.919 121.099 96.8376L139.668 88.2472L158.236 96.8081C158.588 96.9698 158.991 96.9861 159.355 96.8535C159.72 96.7209 160.018 96.4501 160.184 96.0996H160.066Z" fill="#7C6A46"/>
</svg>
