<svg width="280" height="250" viewBox="0 0 280 250" fill="none" xmlns="http://www.w3.org/2000/svg">
<rect width="280" height="250" rx="5" fill="#FAFAFA"/>
<path d="M102.78 168.16H107.48V170H100.5V156.1H102.78V168.16ZM108.627 164.44C108.627 163.333 108.853 162.353 109.307 161.5C109.773 160.647 110.4 159.987 111.187 159.52C111.987 159.04 112.867 158.8 113.827 158.8C114.693 158.8 115.447 158.973 116.087 159.32C116.74 159.653 117.26 160.073 117.647 160.58V158.98H119.947V170H117.647V168.36C117.26 168.88 116.733 169.313 116.067 169.66C115.4 170.007 114.64 170.18 113.787 170.18C112.84 170.18 111.973 169.94 111.187 169.46C110.4 168.967 109.773 168.287 109.307 167.42C108.853 166.54 108.627 165.547 108.627 164.44ZM117.647 164.48C117.647 163.72 117.487 163.06 117.167 162.5C116.86 161.94 116.453 161.513 115.947 161.22C115.44 160.927 114.893 160.78 114.307 160.78C113.72 160.78 113.173 160.927 112.667 161.22C112.16 161.5 111.747 161.92 111.427 162.48C111.12 163.027 110.967 163.68 110.967 164.44C110.967 165.2 111.12 165.867 111.427 166.44C111.747 167.013 112.16 167.453 112.667 167.76C113.187 168.053 113.733 168.2 114.307 168.2C114.893 168.2 115.44 168.053 115.947 167.76C116.453 167.467 116.86 167.04 117.167 166.48C117.487 165.907 117.647 165.24 117.647 164.48ZM132.921 158.98V170H130.641V168.7C130.281 169.153 129.808 169.513 129.221 169.78C128.648 170.033 128.035 170.16 127.381 170.16C126.515 170.16 125.735 169.98 125.041 169.62C124.361 169.26 123.821 168.727 123.421 168.02C123.035 167.313 122.841 166.46 122.841 165.46V158.98H125.101V165.12C125.101 166.107 125.348 166.867 125.841 167.4C126.335 167.92 127.008 168.18 127.861 168.18C128.715 168.18 129.388 167.92 129.881 167.4C130.388 166.867 130.641 166.107 130.641 165.12V158.98H132.921ZM141.49 158.8C142.356 158.8 143.13 158.98 143.81 159.34C144.503 159.7 145.043 160.233 145.43 160.94C145.816 161.647 146.01 162.5 146.01 163.5V170H143.75V163.84C143.75 162.853 143.503 162.1 143.01 161.58C142.516 161.047 141.843 160.78 140.99 160.78C140.136 160.78 139.456 161.047 138.95 161.58C138.456 162.1 138.21 162.853 138.21 163.84V170H135.93V158.98H138.21V160.24C138.583 159.787 139.056 159.433 139.63 159.18C140.216 158.927 140.836 158.8 141.49 158.8ZM148.158 164.44C148.158 163.333 148.385 162.353 148.838 161.5C149.305 160.647 149.931 159.987 150.718 159.52C151.518 159.04 152.405 158.8 153.378 158.8C154.098 158.8 154.805 158.96 155.498 159.28C156.205 159.587 156.765 160 157.178 160.52V155.2H159.478V170H157.178V168.34C156.805 168.873 156.285 169.313 155.618 169.66C154.965 170.007 154.211 170.18 153.358 170.18C152.398 170.18 151.518 169.94 150.718 169.46C149.931 168.967 149.305 168.287 148.838 167.42C148.385 166.54 148.158 165.547 148.158 164.44ZM157.178 164.48C157.178 163.72 157.018 163.06 156.698 162.5C156.391 161.94 155.985 161.513 155.478 161.22C154.971 160.927 154.425 160.78 153.838 160.78C153.251 160.78 152.705 160.927 152.198 161.22C151.691 161.5 151.278 161.92 150.958 162.48C150.651 163.027 150.498 163.68 150.498 164.44C150.498 165.2 150.651 165.867 150.958 166.44C151.278 167.013 151.691 167.453 152.198 167.76C152.718 168.053 153.265 168.2 153.838 168.2C154.425 168.2 154.971 168.053 155.478 167.76C155.985 167.467 156.391 167.04 156.698 166.48C157.018 165.907 157.178 165.24 157.178 164.48ZM164.753 160.58C165.086 160.02 165.526 159.587 166.073 159.28C166.633 158.96 167.293 158.8 168.053 158.8V161.16H167.473C166.579 161.16 165.899 161.387 165.433 161.84C164.979 162.293 164.753 163.08 164.753 164.2V170H162.473V158.98H164.753V160.58ZM180.068 158.98L173.308 175.18H170.948L173.188 169.82L168.848 158.98H171.388L174.488 167.38L177.708 158.98H180.068Z" fill="#7C6A46"/>
<path d="M135.28 113.72C137.88 116.32 142.12 116.32 144.72 113.72C147.32 111.12 147.32 106.88 144.72 104.28L135.28 113.72ZM152 85.02L128 85C125.78 85 124 86.78 124 89V121C124 123.22 125.78 125 128 125H152C154.22 125 156 123.22 156 121V89C156 86.78 154.22 85.02 152 85.02ZM138 91C139.1 91 140 91.9 140 93C140 94.1 139.1 95 138 95C136.9 95 136 94.1 136 93C136 91.9 136.9 91 138 91ZM132 91C133.1 91 134 91.9 134 93C134 94.1 133.1 95 132 95C130.9 95 130 94.1 130 93C130 91.9 130.9 91 132 91ZM140 119C134.48 119 130 114.52 130 109C130 103.48 134.48 99 140 99C145.52 99 150 103.48 150 109C150 114.52 145.52 119 140 119Z" fill="#7C6A46"/>
</svg>
