<svg width="280" height="250" viewBox="0 0 280 250" fill="none" xmlns="http://www.w3.org/2000/svg">
<rect width="280" height="250" rx="5" fill="#FAFAFA"/>
<path d="M141.6 149.1L137.48 163H134.9L131.98 152.48L128.88 163L126.32 163.02L122.38 149.1H124.8L127.68 160.42L130.8 149.1H133.36L136.26 160.36L139.16 149.1H141.6ZM144.64 150.52C144.227 150.52 143.88 150.38 143.6 150.1C143.32 149.82 143.18 149.473 143.18 149.06C143.18 148.647 143.32 148.3 143.6 148.02C143.88 147.74 144.227 147.6 144.64 147.6C145.04 147.6 145.38 147.74 145.66 148.02C145.94 148.3 146.08 148.647 146.08 149.06C146.08 149.473 145.94 149.82 145.66 150.1C145.38 150.38 145.04 150.52 144.64 150.52ZM145.76 151.98V163H143.48V151.98H145.76ZM153.374 153.84H151.334V163H149.034V153.84H147.734V151.98H149.034V151.2C149.034 149.933 149.367 149.013 150.034 148.44C150.714 147.853 151.774 147.56 153.214 147.56V149.46C152.521 149.46 152.034 149.593 151.754 149.86C151.474 150.113 151.334 150.56 151.334 151.2V151.98H153.374V153.84ZM156.555 150.52C156.141 150.52 155.795 150.38 155.515 150.1C155.235 149.82 155.095 149.473 155.095 149.06C155.095 148.647 155.235 148.3 155.515 148.02C155.795 147.74 156.141 147.6 156.555 147.6C156.955 147.6 157.295 147.74 157.575 148.02C157.855 148.3 157.995 148.647 157.995 149.06C157.995 149.473 157.855 149.82 157.575 150.1C157.295 150.38 156.955 150.52 156.555 150.52ZM157.675 151.98V163H155.395V151.98H157.675Z" fill="#7C6A46"/>
<path d="M126.941 105.706L122 100.647C124.314 98.3333 127.03 96.5004 130.148 95.1482C133.267 93.7961 136.629 93.1192 140.235 93.1176C143.843 93.1176 147.206 93.8039 150.325 95.1765C153.443 96.549 156.158 98.4118 158.471 100.765L153.529 105.706C151.804 103.98 149.804 102.627 147.529 101.647C145.255 100.667 142.824 100.176 140.235 100.176C137.647 100.176 135.216 100.667 132.941 101.647C130.667 102.627 128.667 103.98 126.941 105.706ZM116.941 95.7059L112 90.7647C115.608 87.0784 119.824 84.1961 124.647 82.1176C129.471 80.0392 134.667 79 140.235 79C145.804 79 151 80.0392 155.824 82.1176C160.647 84.1961 164.863 87.0784 168.471 90.7647L163.529 95.7059C160.51 92.6863 157.009 90.3231 153.028 88.6165C149.047 86.9098 144.783 86.0573 140.235 86.0588C135.686 86.0588 131.421 86.9122 127.44 88.6188C123.459 90.3255 119.959 92.6878 116.941 95.7059ZM140.235 119L148.529 110.647C147.471 109.588 146.235 108.755 144.824 108.146C143.412 107.537 141.882 107.234 140.235 107.235C138.588 107.235 137.059 107.54 135.647 108.148C134.235 108.757 133 109.59 131.941 110.647L140.235 119Z" fill="#7C6A46"/>
</svg>
