<svg width="280" height="250" viewBox="0 0 280 250" fill="none" xmlns="http://www.w3.org/2000/svg">
<rect width="280" height="250" rx="5" fill="#FAFAFA"/>
<path d="M100.94 155.86C101.687 155.993 102.32 156.387 102.84 157.04C103.36 157.693 103.62 158.433 103.62 159.26C103.62 159.967 103.433 160.607 103.06 161.18C102.7 161.74 102.173 162.187 101.48 162.52C100.787 162.84 99.98 163 99.06 163H93.5V149.1H98.8C99.7467 149.1 100.56 149.26 101.24 149.58C101.92 149.9 102.433 150.333 102.78 150.88C103.127 151.413 103.3 152.013 103.3 152.68C103.3 153.48 103.087 154.147 102.66 154.68C102.233 155.213 101.66 155.607 100.94 155.86ZM95.78 154.94H98.6C99.3467 154.94 99.9267 154.773 100.34 154.44C100.767 154.093 100.98 153.6 100.98 152.96C100.98 152.333 100.767 151.847 100.34 151.5C99.9267 151.14 99.3467 150.96 98.6 150.96H95.78V154.94ZM98.86 161.14C99.6333 161.14 100.24 160.953 100.68 160.58C101.12 160.207 101.34 159.687 101.34 159.02C101.34 158.34 101.107 157.8 100.64 157.4C100.173 157 99.5533 156.8 98.78 156.8H95.78V161.14H98.86ZM108.378 153.58C108.711 153.02 109.151 152.587 109.698 152.28C110.258 151.96 110.918 151.8 111.678 151.8V154.16H111.098C110.204 154.16 109.524 154.387 109.058 154.84C108.604 155.293 108.378 156.08 108.378 157.2V163H106.098V151.98H108.378V153.58ZM123.873 157.22C123.873 157.633 123.847 158.007 123.793 158.34H115.373C115.44 159.22 115.767 159.927 116.353 160.46C116.94 160.993 117.66 161.26 118.513 161.26C119.74 161.26 120.607 160.747 121.113 159.72H123.573C123.24 160.733 122.633 161.567 121.753 162.22C120.887 162.86 119.807 163.18 118.513 163.18C117.46 163.18 116.513 162.947 115.673 162.48C114.847 162 114.193 161.333 113.713 160.48C113.247 159.613 113.013 158.613 113.013 157.48C113.013 156.347 113.24 155.353 113.693 154.5C114.16 153.633 114.807 152.967 115.633 152.5C116.473 152.033 117.433 151.8 118.513 151.8C119.553 151.8 120.48 152.027 121.293 152.48C122.107 152.933 122.74 153.573 123.193 154.4C123.647 155.213 123.873 156.153 123.873 157.22ZM121.493 156.5C121.48 155.66 121.18 154.987 120.593 154.48C120.007 153.973 119.28 153.72 118.413 153.72C117.627 153.72 116.953 153.973 116.393 154.48C115.833 154.973 115.5 155.647 115.393 156.5H121.493ZM125.357 157.44C125.357 156.333 125.584 155.353 126.037 154.5C126.504 153.647 127.131 152.987 127.917 152.52C128.717 152.04 129.597 151.8 130.557 151.8C131.424 151.8 132.177 151.973 132.817 152.32C133.471 152.653 133.991 153.073 134.377 153.58V151.98H136.677V163H134.377V161.36C133.991 161.88 133.464 162.313 132.797 162.66C132.131 163.007 131.371 163.18 130.517 163.18C129.571 163.18 128.704 162.94 127.917 162.46C127.131 161.967 126.504 161.287 126.037 160.42C125.584 159.54 125.357 158.547 125.357 157.44ZM134.377 157.48C134.377 156.72 134.217 156.06 133.897 155.5C133.591 154.94 133.184 154.513 132.677 154.22C132.171 153.927 131.624 153.78 131.037 153.78C130.451 153.78 129.904 153.927 129.397 154.22C128.891 154.5 128.477 154.92 128.157 155.48C127.851 156.027 127.697 156.68 127.697 157.44C127.697 158.2 127.851 158.867 128.157 159.44C128.477 160.013 128.891 160.453 129.397 160.76C129.917 161.053 130.464 161.2 131.037 161.2C131.624 161.2 132.171 161.053 132.677 160.76C133.184 160.467 133.591 160.04 133.897 159.48C134.217 158.907 134.377 158.24 134.377 157.48ZM144.032 157.5L149.112 163H146.032L141.952 158.26V163H139.672V148.2H141.952V156.8L145.952 151.98H149.112L144.032 157.5ZM155.366 153.84H153.326V163H151.026V153.84H149.726V151.98H151.026V151.2C151.026 149.933 151.359 149.013 152.026 148.44C152.706 147.853 153.766 147.56 155.206 147.56V149.46C154.513 149.46 154.026 149.593 153.746 149.86C153.466 150.113 153.326 150.56 153.326 151.2V151.98H155.366V153.84ZM156.627 157.44C156.627 156.333 156.853 155.353 157.307 154.5C157.773 153.647 158.4 152.987 159.187 152.52C159.987 152.04 160.867 151.8 161.827 151.8C162.693 151.8 163.447 151.973 164.087 152.32C164.74 152.653 165.26 153.073 165.647 153.58V151.98H167.947V163H165.647V161.36C165.26 161.88 164.733 162.313 164.067 162.66C163.4 163.007 162.64 163.18 161.787 163.18C160.84 163.18 159.973 162.94 159.187 162.46C158.4 161.967 157.773 161.287 157.307 160.42C156.853 159.54 156.627 158.547 156.627 157.44ZM165.647 157.48C165.647 156.72 165.487 156.06 165.167 155.5C164.86 154.94 164.453 154.513 163.947 154.22C163.44 153.927 162.893 153.78 162.307 153.78C161.72 153.78 161.173 153.927 160.667 154.22C160.16 154.5 159.747 154.92 159.427 155.48C159.12 156.027 158.967 156.68 158.967 157.44C158.967 158.2 159.12 158.867 159.427 159.44C159.747 160.013 160.16 160.453 160.667 160.76C161.187 161.053 161.733 161.2 162.307 161.2C162.893 161.2 163.44 161.053 163.947 160.76C164.453 160.467 164.86 160.04 165.167 159.48C165.487 158.907 165.647 158.24 165.647 157.48ZM174.941 163.18C174.075 163.18 173.295 163.027 172.601 162.72C171.921 162.4 171.381 161.973 170.981 161.44C170.581 160.893 170.368 160.287 170.341 159.62H172.701C172.741 160.087 172.961 160.48 173.361 160.8C173.775 161.107 174.288 161.26 174.901 161.26C175.541 161.26 176.035 161.14 176.381 160.9C176.741 160.647 176.921 160.327 176.921 159.94C176.921 159.527 176.721 159.22 176.321 159.02C175.935 158.82 175.315 158.6 174.461 158.36C173.635 158.133 172.961 157.913 172.441 157.7C171.921 157.487 171.468 157.16 171.081 156.72C170.708 156.28 170.521 155.7 170.521 154.98C170.521 154.393 170.695 153.86 171.041 153.38C171.388 152.887 171.881 152.5 172.521 152.22C173.175 151.94 173.921 151.8 174.761 151.8C176.015 151.8 177.021 152.12 177.781 152.76C178.555 153.387 178.968 154.247 179.021 155.34H176.741C176.701 154.847 176.501 154.453 176.141 154.16C175.781 153.867 175.295 153.72 174.681 153.72C174.081 153.72 173.621 153.833 173.301 154.06C172.981 154.287 172.821 154.587 172.821 154.96C172.821 155.253 172.928 155.5 173.141 155.7C173.355 155.9 173.615 156.06 173.921 156.18C174.228 156.287 174.681 156.427 175.281 156.6C176.081 156.813 176.735 157.033 177.241 157.26C177.761 157.473 178.208 157.793 178.581 158.22C178.955 158.647 179.148 159.213 179.161 159.92C179.161 160.547 178.988 161.107 178.641 161.6C178.295 162.093 177.801 162.48 177.161 162.76C176.535 163.04 175.795 163.18 174.941 163.18ZM184.285 153.84V159.94C184.285 160.353 184.378 160.653 184.565 160.84C184.765 161.013 185.098 161.1 185.565 161.1H186.965V163H185.165C184.138 163 183.352 162.76 182.805 162.28C182.258 161.8 181.985 161.02 181.985 159.94V153.84H180.685V151.98H181.985V149.24H184.285V151.98H186.965V153.84H184.285Z" fill="#7C6A46"/>
<path d="M127.237 91.5474L128.332 90.4316C129.553 89.2105 131.574 89.2105 132.837 90.5158L132.879 90.5789C133.911 91.6316 135.279 92.1368 136.774 92.2842C138.816 92.4737 140.795 93.5684 142.1 95.5474C143.532 97.8211 143.511 100.853 142.016 103.105C141.452 103.997 140.694 104.749 139.798 105.306C138.902 105.863 137.892 106.211 136.843 106.322C135.794 106.433 134.734 106.306 133.741 105.949C132.748 105.593 131.849 105.016 131.111 104.263C129.932 103.105 129.258 101.611 129.089 100.053C128.921 98.5158 128.311 97.0632 127.237 95.9895C126.016 94.7895 126.016 92.7684 127.237 91.5474ZM136.079 108.474C133.616 108.474 131.321 107.526 129.616 105.779C128.142 104.263 127.216 102.368 126.984 100.305C126.921 99.6737 126.732 98.8526 126.226 98.0947C124.963 99.8421 124.205 101.947 124.205 104.263C124.205 107.716 125.889 110.768 128.479 112.684H155.784V110.579C155.784 103 150.753 96.5789 143.868 94.4737C145.742 97.4211 145.7 101.358 143.784 104.263C142.1 106.895 139.195 108.474 136.079 108.474ZM146.9 90.7053H149.574C151.405 90.7053 153.005 91.9895 153.005 94.2842V95.8421H155.637V93.7368C155.637 90.5789 152.837 88.1789 149.574 88.1789H146.9C145.153 88.1789 143.658 86.4526 143.658 84.6842C143.658 82.9158 145.153 81.6105 146.9 81.6105V79C143.658 79 141.047 81.6105 141.047 84.8526C141.047 88.0947 143.658 90.7053 146.9 90.7053ZM125.258 90.6842C125.384 90.4737 125.553 90.2632 125.742 90.0526L126.837 88.9579C127.026 88.7684 127.237 88.6211 127.447 88.4737L124.479 85.4632C124.774 84.8947 124.668 84.1579 124.205 83.6737C123.904 83.3802 123.5 83.216 123.079 83.216C122.658 83.216 122.254 83.3802 121.953 83.6737C121.658 83.9684 121.511 84.3263 121.489 84.7053C121.111 84.7263 120.753 84.8737 120.458 85.1684C119.847 85.7789 119.847 86.7895 120.458 87.4211C120.942 87.8842 121.658 87.9895 122.247 87.6947L125.258 90.6842ZM154.5 84.0316C155.574 82.9579 156.247 81.5053 156.247 79.8842H153.616C153.616 81.6316 152.142 83.1053 150.395 83.1053V85.7158C154.311 85.7158 157.384 88.9158 157.384 92.8316V97.9474H159.995V92.8316C160.005 90.9952 159.495 89.1935 158.522 87.6358C157.549 86.0781 156.155 84.8283 154.5 84.0316ZM126.311 119H155.784C158.121 119 159.995 117.126 159.995 114.789H122.1C122.1 115.906 122.544 116.977 123.333 117.767C124.123 118.556 125.194 119 126.311 119Z" fill="#7C6A46"/>
</svg>
