<svg width="90" height="13" viewBox="0 0 90 13" fill="none" xmlns="http://www.w3.org/2000/svg">
<path d="M2.61711 13L3.72895 8.19342L0 4.96053L4.92632 4.53289L6.84211 0L8.7579 4.53289L13.6842 4.96053L9.95526 8.19342L11.0671 13L6.84211 10.4513L2.61711 13Z" fill="#FFCE31"/>
<path d="M21.6171 13L22.7289 8.19342L19 4.96053L23.9263 4.53289L25.8421 0L27.7579 4.53289L32.6842 4.96053L28.9553 8.19342L30.0671 13L25.8421 10.4513L21.6171 13Z" fill="#FFCE31"/>
<path d="M40.6171 13L41.7289 8.19342L38 4.96053L42.9263 4.53289L44.8421 0L46.7579 4.53289L51.6842 4.96053L47.9553 8.19342L49.0671 13L44.8421 10.4513L40.6171 13Z" fill="#FFCE31"/>
<path d="M59.6171 13L60.7289 8.19342L57 4.96053L61.9263 4.53289L63.8421 0L65.7579 4.53289L70.6842 4.96053L66.9553 8.19342L68.0671 13L63.8421 10.4513L59.6171 13Z" fill="#FFCE31"/>
<path d="M82.8421 3.50658V8.84342L84.9974 10.1605L84.4329 7.69737L86.3316 6.05526L83.8342 5.83289L82.8421 3.50658ZM78.6171 13L79.7289 8.19342L76 4.96053L80.9263 4.53289L82.8421 0L84.7579 4.53289L89.6842 4.96053L85.9553 8.19342L87.0671 13L82.8421 10.4513L78.6171 13Z" fill="#FFCE31"/>
</svg>
